# Blender v2.79 (sub 0) OBJ File: 'runealtar_fire.blend'
# www.blender.org
mtllib runealtar_fire.mtl
o Cube
v 1.000000 0.000000 0.000000
v 1.000000 0.000000 1.000000
v -0.000000 0.000000 1.000000
v 0.000000 0.000000 -0.000000
v 1.033299 0.715255 0.275580
v 1.248702 0.495359 1.058930
v 0.118148 0.864295 0.899772
v -0.221030 1.425085 -0.023524
v 1.000000 0.000000 0.000000
v 1.000000 0.000000 1.000000
v 0.000000 0.000000 -0.000000
v 1.033299 0.715255 0.275580
v -0.000000 0.000000 1.000000
v 1.248702 0.495359 1.058930
v 0.118148 0.864295 0.899772
v -0.221030 1.425085 -0.023524
v 1.000000 0.000000 0.000000
v 1.000000 0.000000 1.000000
v 0.000000 0.000000 -0.000000
v 1.033299 0.715255 0.275580
v -0.000000 0.000000 1.000000
v 1.248702 0.495359 1.058930
v 0.118148 0.864295 0.899772
v -0.221030 1.425085 -0.023524
vt 0.000000 0.000000
vt 0.000000 0.000000
vt 0.000000 0.000000
vt 0.000000 0.000000
vt 0.000000 0.000000
vt 0.000000 0.000000
vt 0.000000 0.000000
vt 0.000000 0.000000
vt 0.000000 0.000000
vt 0.000000 0.000000
vt 0.000000 0.000000
vt 0.000000 0.000000
vt 0.000000 0.000000
vt 0.000000 0.000000
vt 0.000000 0.000000
vt 0.000000 0.000000
vt 0.012710 0.941966
vt 0.318191 0.636486
vt 0.318191 0.941966
vt 0.372469 0.280002
vt 0.034585 0.230808
vt 0.338017 0.025210
vt 0.974613 0.934689
vt 0.687023 0.815912
vt 0.969808 0.700364
vt 0.638092 0.760498
vt 0.335390 0.987628
vt 0.335390 0.719394
vt 0.703157 0.426656
vt 0.452299 0.715849
vt 0.435390 0.410837
vt 0.536021 0.000210
vt 0.770174 0.315863
vt 0.338515 0.404166
vt 0.012710 0.636486
vt 0.034585 0.576690
vt 0.721998 0.982559
vt 0.695756 0.920716
vt 0.892899 0.715849
vt 0.770174 0.010382
vn 0.0000 1.0000 0.0000
vn -0.3894 -0.8437 -0.3694
vn -0.9989 0.0465 0.0000
vn 0.1524 0.0410 -0.9875
vn 0.9908 -0.1354 0.0000
vn -0.0000 -0.3595 0.9331
vn 0.0000 -1.0000 0.0000
vn 0.2809 0.9414 0.1870
vn 0.9989 -0.0465 0.0000
vn -0.0000 0.1152 0.9933
vn -0.9908 0.1354 -0.0000
vn 0.2435 0.0218 -0.9696
vn -0.2809 -0.9414 -0.1870
vn -0.8549 0.3883 0.3441
vn 0.0000 -0.1152 -0.9933
vn 0.9540 0.1436 -0.2632
vn -0.2435 -0.0218 0.9696
vn 0.3894 0.8437 0.3694
vn 0.8549 -0.3883 -0.3441
vn -0.1524 -0.0410 0.9875
vn -0.9540 -0.1436 0.2632
vn 0.0000 0.3595 -0.9331
usemtl Material
s off
f 4/1/1 2/2/1 1/3/1
f 5/4/2 7/5/2 8/6/2
f 2/2/3 5/4/3 1/3/3
f 2/2/4 7/5/4 6/7/4
f 4/1/5 7/5/5 3/8/5
f 5/4/6 4/1/6 1/3/6
f 11/9/1 10/10/1 9/11/1
f 12/12/2 15/13/2 16/14/2
f 10/10/3 12/12/3 9/11/3
f 10/10/4 15/13/4 14/15/4
f 11/9/5 15/13/5 13/16/5
f 12/12/6 11/9/6 9/11/6
f 18/17/7 19/18/7 17/19/7
f 20/20/8 23/21/8 22/22/8
f 20/23/9 18/24/9 17/25/9
f 18/26/10 23/27/10 21/28/10
f 23/29/11 19/30/11 21/31/11
f 20/32/12 19/33/12 24/34/12
f 4/1/1 3/8/1 2/2/1
f 5/4/13 6/7/13 7/5/13
f 2/2/14 6/7/14 5/4/14
f 2/2/15 3/8/15 7/5/15
f 4/1/16 8/6/16 7/5/16
f 5/4/17 8/6/17 4/1/17
f 11/9/1 13/16/1 10/10/1
f 12/12/13 14/15/13 15/13/13
f 10/10/14 14/15/14 12/12/14
f 10/10/15 13/16/15 15/13/15
f 11/9/16 16/14/16 15/13/16
f 12/12/17 16/14/17 11/9/17
f 18/17/7 21/35/7 19/18/7
f 20/20/18 24/36/18 23/21/18
f 20/23/19 22/37/19 18/24/19
f 18/26/20 22/38/20 23/27/20
f 23/29/21 24/39/21 19/30/21
f 20/32/22 17/40/22 19/33/22
