# Blender v2.79 (sub 0) OBJ File: 'RuneAlter.blend'
# www.blender.org
mtllib runealtar_fire.mtl
o Cube
v -0.054177 0.462293 -1.463397
v -0.054177 0.462293 0.536603
v -2.054177 0.462293 0.536603
v -2.054177 0.462293 -1.463397
v 0.059872 3.598171 -2.190460
v -0.293091 2.145776 0.597784
v -1.806875 1.497574 1.165783
v -1.895959 1.906933 -1.099356
vt 0.553384 0.281638
vt 0.834816 0.000207
vt 0.834816 0.281638
vt 0.158062 0.319390
vt 0.242655 0.000206
vt 0.552971 0.319390
vt 0.689740 0.372928
vt 0.399699 0.612194
vt 0.408309 0.372928
vt 0.634256 0.757516
vt 0.387624 0.927990
vt 0.352824 0.757516
vt 0.940859 0.606510
vt 0.778489 0.344880
vt 0.988721 0.329178
vt 0.000206 0.608722
vt 0.324286 0.530694
vt 0.324286 0.925603
vt 0.553384 0.000206
vt 0.000206 0.036278
vt 0.796826 0.813353
vt 0.622923 0.996669
vt 0.778489 0.669026
vt 0.171506 0.385428
vn 0.0000 -1.0000 0.0000
vn -0.4918 0.7962 0.3525
vn 0.9901 0.1405 0.0000
vn -0.0000 -0.5193 0.8546
vn -0.9941 0.1089 -0.0000
vn -0.3391 -0.2008 -0.9191
vn -0.3292 0.9269 0.1805
vn 0.9926 -0.0079 0.1215
vn 0.3456 0.0150 0.9382
vn -0.9791 0.1897 0.0728
vn 0.0000 0.2444 -0.9697
usemtl Material
s off
f 2/1/1 4/2/1 1/3/1
f 8/4/2 6/5/2 5/6/2
f 1/7/3 6/8/3 2/9/3
f 2/10/4 7/11/4 3/12/4
f 3/13/5 8/14/5 4/15/5
f 1/16/6 8/17/6 5/18/6
f 2/1/1 3/19/1 4/2/1
f 8/4/7 7/20/7 6/5/7
f 1/7/8 5/21/8 6/8/8
f 2/10/9 6/22/9 7/11/9
f 3/13/10 7/23/10 8/14/10
f 1/16/11 4/24/11 8/17/11
