# Blender v2.79 (sub 0) OBJ File: 'runealtar_air.blend'
# www.blender.org
mtllib runealtar_air.mtl
o Cube
v 1.000000 0.000000 0.000000
v 1.000000 0.000000 1.000000
v -0.000000 0.000000 1.000000
v 0.000000 0.000000 -0.000000
v 1.001237 0.529073 0.577650
v 1.158417 0.613361 1.117893
v 0.109045 0.887186 0.892166
v -0.183857 1.253175 0.104206
vt 0.018950 0.884351
vt 0.321392 0.581909
vt 0.321392 0.884351
vt 0.563818 0.213104
vt 0.374266 0.453230
vt 0.418403 0.121119
vt 0.504166 0.958035
vt 0.518047 0.753759
vt 0.741077 0.958034
vt 0.927186 0.149330
vt 0.626971 0.385002
vt 0.626971 0.112700
vt 0.862574 0.498798
vt 0.580634 0.756483
vt 0.593927 0.454333
vt 0.137072 0.043950
vt 0.373983 0.346767
vt 0.009575 0.469009
vt 0.018950 0.581909
vt 0.562477 0.656870
vt 0.358759 0.866039
vt 0.959175 0.341570
vt 0.964998 0.756483
vt 0.373983 0.044325
vn 0.0000 -1.0000 0.0000
vn 0.2917 0.9285 -0.2297
vn 1.0000 -0.0023 0.0000
vn -0.0000 0.1207 0.9927
vn -0.9925 0.1220 -0.0000
vn 0.4391 0.1382 -0.8877
vn 0.4337 0.8680 0.2419
vn 0.9490 -0.1980 -0.2452
vn -0.2393 -0.1233 0.9631
vn -0.9472 -0.1620 0.2768
vn 0.0000 0.7374 -0.6754
usemtl Material
s off
f 2/1/1 4/2/1 1/3/1
f 5/4/2 7/5/2 6/6/2
f 5/7/3 2/8/3 1/9/3
f 2/10/4 7/11/4 3/12/4
f 7/13/5 4/14/5 3/15/5
f 5/16/6 4/17/6 8/18/6
f 2/1/1 3/19/1 4/2/1
f 5/4/7 8/20/7 7/5/7
f 5/7/8 6/21/8 2/8/8
f 2/10/9 6/22/9 7/11/9
f 7/13/10 8/23/10 4/14/10
f 5/16/11 1/24/11 4/17/11
