# Blender v2.79 (sub 0) OBJ File: 'runealtar_water.blend'
# www.blender.org
mtllib runealtar_water.mtl
o Cube
v 1.000000 0.000000 0.000000
v 1.000000 0.000000 1.000000
v -0.000000 0.000000 1.000000
v 0.000000 0.000000 -0.000000
v 1.280719 0.402989 0.140113
v 1.223544 0.560182 1.035990
v 0.106571 0.900692 0.881120
v -0.003227 1.253357 -0.304975
vt 0.031461 0.980461
vt 0.338897 0.673024
vt 0.338897 0.980461
vt 0.062633 0.020868
vt 0.368196 0.355900
vt 0.010998 0.296254
vt 0.771856 0.968539
vt 0.527941 0.786358
vt 0.833071 0.823950
vt 0.113161 0.575206
vt 0.458342 0.389983
vt 0.406751 0.666433
vt 0.836664 0.059203
vt 0.593180 0.362265
vt 0.555449 0.057153
vt 0.972818 0.614502
vt 0.482296 0.457505
vt 0.975130 0.457505
vt 0.031461 0.673024
vt 0.555463 0.023041
vt 0.491671 0.968539
vt 0.096198 0.390226
vt 0.986825 0.410366
vt 0.713529 0.779686
vn 0.0000 -1.0000 0.0000
vn 0.3069 0.9406 -0.1454
vn 0.8205 -0.5716 0.0000
vn -0.0000 0.1309 0.9914
vn -0.9931 0.1175 -0.0000
vn 0.3664 0.0674 -0.9280
vn 0.4895 0.8472 0.2066
vn 0.9188 -0.3746 0.1244
vn -0.1397 -0.0079 0.9902
vn -0.9949 0.0214 0.0985
vn 0.0000 -0.2364 -0.9716
usemtl Material
s off
f 2/1/1 4/2/1 1/3/1
f 5/4/2 7/5/2 6/6/2
f 5/7/3 2/8/3 1/9/3
f 2/10/4 7/11/4 3/12/4
f 7/13/5 4/14/5 3/15/5
f 1/16/6 8/17/6 5/18/6
f 2/1/1 3/19/1 4/2/1
f 5/4/7 8/20/7 7/5/7
f 5/7/8 6/21/8 2/8/8
f 2/10/9 6/22/9 7/11/9
f 7/13/10 8/23/10 4/14/10
f 1/16/11 4/24/11 8/17/11
