# Blender v2.79 (sub 0) OBJ File: 'obelisk.blend'
# www.blender.org
mtllib runic_obelisk.mtl
o Cube
v 1.006065 0.047964 0.024574
v 1.006065 0.047964 1.024574
v 0.006065 0.047964 1.024574
v 0.006065 0.047964 0.024574
v 1.006065 -0.028682 0.024575
v 1.006065 -0.028682 1.024575
v 0.006065 -0.028682 1.024574
v 0.006065 -0.028682 0.024574
v 0.744834 0.924704 0.313104
v 0.744834 0.055548 0.313104
v 0.744834 0.924704 0.754326
v 0.744834 0.055548 0.754326
v 0.281975 0.924704 0.313104
v 0.281975 0.055548 0.313104
v 0.281975 0.924704 0.754326
v 0.281975 0.055548 0.754326
v 0.522947 1.245813 0.528382
v 0.754377 0.932381 0.307770
v 0.754377 0.932381 0.748993
v 0.291518 0.932381 0.307770
v 0.291518 0.932381 0.748993
vt 0.410083 0.265413
vt 0.321933 0.177263
vt 0.321933 0.265413
vt 0.410083 0.000193
vt 0.321933 0.088343
vt 0.410083 0.088343
vt 0.321933 0.088728
vt 0.410083 0.176878
vt 0.410083 0.088728
vt 0.321933 0.265798
vt 0.410083 0.353948
vt 0.410083 0.265798
vt 0.249273 0.450306
vt 0.161123 0.362156
vt 0.161123 0.450306
vt 0.321933 0.354334
vt 0.410083 0.442484
vt 0.410083 0.354334
vt 0.121844 0.000193
vt 0.160738 0.999807
vt 0.160738 0.000193
vt 0.041379 0.000193
vt 0.082180 0.999807
vt 0.082180 0.000193
vt 0.082565 0.000193
vt 0.121459 0.999807
vt 0.121459 0.000193
vt 0.000193 0.000193
vt 0.040994 0.999807
vt 0.040994 0.000193
vt 0.451269 0.000193
vt 0.410468 0.039086
vt 0.451269 0.039086
vt 0.249659 0.401050
vt 0.290473 0.362170
vt 0.249672 0.362156
vt 0.302100 0.000193
vt 0.282654 0.361248
vt 0.321547 0.361248
vt 0.201859 0.000193
vt 0.161123 0.359469
vt 0.201859 0.361771
vt 0.282268 0.000193
vt 0.243431 0.359679
vt 0.282268 0.361771
vt 0.222645 0.000193
vt 0.202245 0.361195
vt 0.243046 0.361195
vt 0.249659 0.440343
vt 0.290473 0.401464
vt 0.249672 0.401449
vt 0.410083 0.177263
vt 0.321933 0.000193
vt 0.321933 0.176878
vt 0.321933 0.353948
vt 0.249273 0.362156
vt 0.321933 0.442484
vt 0.121844 0.999807
vt 0.041379 0.999807
vt 0.082565 0.999807
vt 0.000193 0.999807
vt 0.410468 0.000193
vt 0.290460 0.401064
vt 0.290460 0.440357
vn 0.0000 1.0000 0.0000
vn 0.0000 -1.0000 0.0000
vn 1.0000 0.0000 0.0000
vn 0.0000 0.0000 1.0000
vn -1.0000 0.0000 -0.0000
vn 0.0000 -0.0000 -1.0000
vn 0.8045 0.5940 0.0000
vn 0.0000 0.5756 0.8177
vn -0.8045 0.5940 0.0000
vn 0.0000 0.5756 -0.8177
usemtl Material.001
s off
f 1/1/1 3/2/1 2/3/1
f 6/4/2 8/5/2 5/6/2
f 2/7/3 5/8/3 1/9/3
f 3/10/4 6/11/4 2/12/4
f 4/13/5 7/14/5 3/15/5
f 8/16/6 1/17/6 5/18/6
f 11/19/3 10/20/3 9/21/3
f 15/22/4 12/23/4 11/24/4
f 13/25/5 16/26/5 15/27/5
f 9/28/6 14/29/6 13/30/6
f 9/31/1 15/32/1 11/33/1
f 14/34/2 12/35/2 16/36/2
f 17/37/7 19/38/7 18/39/7
f 17/40/8 21/41/8 19/42/8
f 17/43/9 20/44/9 21/45/9
f 17/46/10 18/47/10 20/48/10
f 20/49/2 19/50/2 21/51/2
f 1/1/1 4/52/1 3/2/1
f 6/4/2 7/53/2 8/5/2
f 2/7/3 6/54/3 5/8/3
f 3/10/4 7/55/4 6/11/4
f 4/13/5 8/56/5 7/14/5
f 8/16/6 4/57/6 1/17/6
f 11/19/3 12/58/3 10/20/3
f 15/22/4 16/59/4 12/23/4
f 13/25/5 14/60/5 16/26/5
f 9/28/6 10/61/6 14/29/6
f 9/31/1 13/62/1 15/32/1
f 14/34/2 10/63/2 12/35/2
f 20/49/2 18/64/2 19/50/2
